<svg xmlns="http://www.w3.org/2000/svg" style="display:none">
  <!-- ===== index.html symbols ===== -->
  <symbol id="i-coin" viewBox="0 0 24 24"><circle cx="12" cy="12" r="10" fill="#FFCB3D" stroke="#B5750A" stroke-width="1.6"/><circle cx="12" cy="12" r="6.4" fill="none" stroke="#FFF0C0" stroke-width="1.4"/><path d="M12 8v8M9.6 10c0-1 1-1.5 2.4-1.5s2.4.5 2.4 1.5-1 1.4-2.4 1.4-2.4.5-2.4 1.5 1 1.5 2.4 1.5 2.4-.5 2.4-1.5" fill="none" stroke="#B5750A" stroke-width="1.3" stroke-linecap="round"/></symbol>
  <symbol id="i-gem" viewBox="0 0 24 24"><path d="M6 3h12l4 6-10 12L2 9z" fill="#38C6E8" stroke="#0E86A0" stroke-width="1.3" stroke-linejoin="round"/><path d="M2 9h20M9 3 7 9l5 12M15 3l2 6-5 12" fill="none" stroke="#CFF6FC" stroke-width="1.1" stroke-linejoin="round"/></symbol>
  <symbol id="i-plus" viewBox="0 0 24 24"><path d="M12 5v14M5 12h14" stroke="currentColor" stroke-width="3.4" stroke-linecap="round"/></symbol>
  <symbol id="i-user" viewBox="0 0 24 24" fill="none" stroke="currentColor" stroke-width="2.2" stroke-linecap="round" stroke-linejoin="round"><circle cx="12" cy="8" r="4"/><path d="M4 21c0-4 3.6-6.5 8-6.5s8 2.5 8 6.5"/></symbol>
  <symbol id="i-gear" viewBox="0 0 24 24" fill="none" stroke="currentColor" stroke-width="2" stroke-linecap="round" stroke-linejoin="round"><circle cx="12" cy="12" r="3.2"/><path d="M19.4 15a1.7 1.7 0 0 0 .3 1.9 2 2 0 1 1-2.8 2.8 1.7 1.7 0 0 0-2.9 1.2 2 2 0 1 1-4 0 1.7 1.7 0 0 0-2.9-1.2 2 2 0 1 1-2.8-2.8A1.7 1.7 0 0 0 2 15a2 2 0 1 1 0-4 1.7 1.7 0 0 0 1.3-2.9 2 2 0 1 1 2.8-2.8A1.7 1.7 0 0 0 9 5.5a2 2 0 1 1 4 0 1.7 1.7 0 0 0 2.9 1.2 2 2 0 1 1 2.8 2.8A1.7 1.7 0 0 0 22 11a2 2 0 1 1 0 4 1.7 1.7 0 0 0-1.6 1z"/></symbol>
  <symbol id="i-help" viewBox="0 0 24 24" fill="none" stroke="currentColor" stroke-width="2.4" stroke-linecap="round" stroke-linejoin="round"><path d="M9.2 9.2a2.8 2.8 0 0 1 5.5.7c0 1.8-2.7 2.3-2.7 4"/><circle cx="12" cy="17" r=".7" fill="currentColor"/></symbol>
  <symbol id="i-flame" viewBox="0 0 24 24"><path d="M12 2c1 4 5 5 5 10a5 5 0 0 1-10 0c0-2 1-3 1-3s-1 3 1 4c0-3 3-4 3-6 0-2-1-3-1-5z" fill="currentColor"/></symbol>
  <symbol id="i-bell" viewBox="0 0 24 24" fill="none" stroke="currentColor" stroke-width="2" stroke-linecap="round" stroke-linejoin="round"><path d="M6 9a6 6 0 0 1 12 0c0 5 2 6 2 6H4s2-1 2-6zM10 20a2 2 0 0 0 4 0"/></symbol>
  <symbol id="i-gift" viewBox="0 0 24 24" fill="none" stroke="currentColor" stroke-width="2" stroke-linecap="round" stroke-linejoin="round"><rect x="3" y="8" width="18" height="4" rx="1"/><path d="M12 8v13M5 12v9h14v-9M12 8S11 3 8 3a2.5 2.5 0 0 0 0 5zM12 8s1-5 4-5a2.5 2.5 0 0 1 0 5z"/></symbol>
  <symbol id="i-mail" viewBox="0 0 24 24" fill="none" stroke="currentColor" stroke-width="2" stroke-linecap="round" stroke-linejoin="round"><rect x="3" y="5" width="18" height="14" rx="2"/><path d="M3 7l9 6 9-6"/></symbol>
  <symbol id="i-bag" viewBox="0 0 24 24" fill="none" stroke="currentColor" stroke-width="2.2" stroke-linecap="round" stroke-linejoin="round"><path d="M5 8h14l-1 12H6z"/><path d="M8.5 8V6.5a3.5 3.5 0 0 1 7 0V8"/></symbol>
  <symbol id="i-cards" viewBox="0 0 24 24" fill="none" stroke="currentColor" stroke-width="2" stroke-linecap="round" stroke-linejoin="round"><rect x="8.5" y="3.5" width="10" height="14" rx="2"/><rect x="4.5" y="6.5" width="10" height="14" rx="2"/></symbol>
  <symbol id="i-vs" viewBox="0 0 24 24" fill="none" stroke="currentColor" stroke-width="2.2" stroke-linecap="round" stroke-linejoin="round"><path d="M4 5l4 7-4 7M20 5l-4 7 4 7M10 9l4 6M14 9l-4 6"/></symbol>
  <symbol id="i-trophy" viewBox="0 0 24 24" fill="none" stroke="currentColor" stroke-width="2" stroke-linecap="round" stroke-linejoin="round"><path d="M6 9a6 6 0 0 0 12 0V3H6z"/><path d="M6 5H3a2 2 0 0 0 0 4h1M18 5h3a2 2 0 0 1 0 4h-1M9 21h6M12 15v6"/></symbol>
  <symbol id="i-sword" viewBox="0 0 24 24" fill="none" stroke="currentColor" stroke-width="2" stroke-linecap="round" stroke-linejoin="round"><path d="M14.5 3.5 21 3l-.5 6.5-9 9-3-3zM6 15l3 3M4 18l2 2M14.5 9.5l-5 5"/></symbol>
  <symbol id="i-star" viewBox="0 0 24 24"><path d="M12 2.5l2.9 6 6.6.9-4.8 4.6 1.2 6.5L12 18.9 6.1 20.5l1.2-6.5L2.5 9.4l6.6-.9z" fill="currentColor"/></symbol>
  <symbol id="i-heart" viewBox="0 0 24 24"><path d="M12 20.5l-1.4-1.3C5.4 14.6 2 11.5 2 7.8 2 5 4.2 3 6.9 3c1.6 0 3.1.7 4.1 1.9C12 3.7 13.5 3 15.1 3 17.8 3 20 5 20 7.8c0 3.7-3.4 6.8-8.6 11.4z" fill="currentColor"/></symbol>
  <symbol id="i-leaf" viewBox="0 0 24 24"><path d="M4 20C4 10 11 4 20 4c0 9-6 16-16 16z" fill="currentColor"/></symbol>
  <symbol id="i-lock" viewBox="0 0 24 24" fill="none" stroke="currentColor" stroke-width="2" stroke-linecap="round" stroke-linejoin="round"><rect x="4.5" y="10.5" width="15" height="10" rx="2.5"/><path d="M8 10.5V7a4 4 0 0 1 8 0v3.5"/></symbol>
  <symbol id="i-crown" viewBox="0 0 24 24"><path d="M3 8l4 3 5-6 5 6 4-3-2 11H5z" fill="currentColor"/></symbol>
  <symbol id="i-refresh" viewBox="0 0 24 24" fill="none" stroke="currentColor" stroke-width="2" stroke-linecap="round" stroke-linejoin="round"><path d="M20 11a8 8 0 1 0-1 5M20 5v6h-6"/></symbol>
  <symbol id="i-shield" viewBox="0 0 24 24" fill="none" stroke="currentColor" stroke-width="2" stroke-linecap="round" stroke-linejoin="round"><path d="M12 3l7 3v6c0 4.5-3 7.5-7 9-4-1.5-7-4.5-7-9V6z"/></symbol>
  <symbol id="i-x" viewBox="0 0 24 24" fill="none" stroke="currentColor" stroke-width="2.6" stroke-linecap="round"><path d="M6 6l12 12M18 6 6 18"/></symbol>
  <symbol id="i-pause" viewBox="0 0 24 24"><rect x="6" y="5" width="4" height="14" rx="1.5" fill="currentColor"/><rect x="14" y="5" width="4" height="14" rx="1.5" fill="currentColor"/></symbol>
  <symbol id="i-speed" viewBox="0 0 24 24"><path d="M13 2 4 14h6l-1 8 9-12h-6z" fill="currentColor"/></symbol>
  <symbol id="i-chat" viewBox="0 0 24 24" fill="none" stroke="currentColor" stroke-width="2" stroke-linecap="round" stroke-linejoin="round"><path d="M21 11.5a8.38 8.38 0 0 1-.9 3.8 8.5 8.5 0 0 1-7.6 4.7 8.38 8.38 0 0 1-3.8-.9L3 21l1.9-5.7a8.38 8.38 0 0 1-.9-3.8 8.5 8.5 0 0 1 4.7-7.6 8.38 8.38 0 0 1 3.8-.9h.5a8.48 8.48 0 0 1 8 8v.5z"/></symbol>
  <!-- ===== admin.html unique symbols ===== -->
  <symbol id="i-grid" viewBox="0 0 24 24" fill="none" stroke="currentColor" stroke-width="2" stroke-linecap="round" stroke-linejoin="round"><rect x="3" y="3" width="7" height="7" rx="1.5"/><rect x="14" y="3" width="7" height="7" rx="1.5"/><rect x="3" y="14" width="7" height="7" rx="1.5"/><rect x="14" y="14" width="7" height="7" rx="1.5"/></symbol>
  <symbol id="i-users" viewBox="0 0 24 24" fill="none" stroke="currentColor" stroke-width="2" stroke-linecap="round" stroke-linejoin="round"><circle cx="8" cy="8" r="3.4"/><circle cx="17" cy="9" r="2.6"/><path d="M2.5 20c0-3.2 2.6-5.5 5.5-5.5s5.5 2.3 5.5 5.5M15 20c0-2.4 1.2-4 3-4.4"/></symbol>
  <symbol id="i-search" viewBox="0 0 24 24" fill="none" stroke="currentColor" stroke-width="2" stroke-linecap="round" stroke-linejoin="round"><circle cx="11" cy="11" r="7"/><path d="M21 21l-4-4"/></symbol>
  <symbol id="i-send" viewBox="0 0 24 24" fill="none" stroke="currentColor" stroke-width="2" stroke-linecap="round" stroke-linejoin="round"><path d="M22 2 11 13M22 2l-7 20-4-9-9-4z"/></symbol>
  <symbol id="i-trash" viewBox="0 0 24 24" fill="none" stroke="currentColor" stroke-width="2" stroke-linecap="round" stroke-linejoin="round"><path d="M3 6h18M8 6V4h8v2M6 6l1 14h10l1-14"/></symbol>
</svg>
